<svg width="206" height="42" viewBox="0 0 206 42" fill="none" xmlns="http://www.w3.org/2000/svg">
<rect x="0.5" y="0.5" width="41" height="41" rx="4.5" fill="url(#paint0_linear_7126_34)" fill-opacity="0.5"/>
<rect x="0.5" y="0.5" width="41" height="41" rx="4.5" stroke="#289944"/>
<circle cx="16" cy="12" r="4" fill="white"/>
<circle cx="26" cy="12" r="4" fill="white"/>
<circle cx="11" cy="21" r="4" fill="white"/>
<circle cx="21" cy="21" r="4" fill="white"/>
<circle cx="31" cy="21" r="4" fill="white"/>
<circle cx="16" cy="30" r="4" fill="white"/>
<circle cx="26" cy="30" r="4" fill="white"/>
<path d="M56.232 32.5H51.368V9.524H66.216V13.748H56.232V19.54H64.648V23.732H56.232V32.5ZM75.521 32.82C74.2837 32.82 73.1317 32.596 72.065 32.148C71.0197 31.7 70.1023 31.0707 69.313 30.26C68.545 29.4493 67.937 28.5107 67.489 27.444C67.0623 26.356 66.849 25.1933 66.849 23.956C66.849 22.6973 67.0623 21.5347 67.489 20.468C67.937 19.4013 68.545 18.4627 69.313 17.652C70.1023 16.8413 71.0197 16.212 72.065 15.764C73.1317 15.316 74.2837 15.092 75.521 15.092C76.7583 15.092 77.8997 15.316 78.945 15.764C80.0117 16.212 80.929 16.8413 81.697 17.652C82.4863 18.4627 83.0943 19.4013 83.521 20.468C83.969 21.5347 84.193 22.6973 84.193 23.956C84.193 25.1933 83.969 26.356 83.521 27.444C83.0943 28.5107 82.4863 29.4493 81.697 30.26C80.929 31.0707 80.0117 31.7 78.945 32.148C77.8997 32.596 76.7583 32.82 75.521 32.82ZM75.521 28.884C76.2677 28.884 76.9503 28.692 77.569 28.308C78.1877 27.924 78.6783 27.3693 79.041 26.644C79.425 25.8973 79.617 25.0013 79.617 23.956C79.617 22.8893 79.425 21.9933 79.041 21.268C78.6783 20.5427 78.1877 19.9987 77.569 19.636C76.9503 19.252 76.2677 19.06 75.521 19.06C74.7957 19.06 74.113 19.252 73.473 19.636C72.8543 19.9987 72.353 20.5427 71.969 21.268C71.6063 21.9933 71.425 22.8893 71.425 23.956C71.425 25.0013 71.6063 25.8973 71.969 26.644C72.353 27.3693 72.8543 27.924 73.473 28.308C74.113 28.692 74.7957 28.884 75.521 28.884ZM90.8395 24.212V32.5H86.3915V15.412H90.4875V18.708C91.1275 17.62 92.0555 16.7667 93.2715 16.148C94.4875 15.5293 95.7782 15.22 97.1435 15.22V19.828C95.9062 19.7427 94.8075 19.8067 93.8475 20.02C92.9088 20.212 92.1728 20.6493 91.6395 21.332C91.1062 21.9933 90.8395 22.9533 90.8395 24.212ZM106.113 32.788C104.406 32.788 102.902 32.4253 101.601 31.7C100.321 30.9533 99.329 29.908 98.625 28.564C97.921 27.22 97.569 25.6627 97.569 23.892C97.569 22.1853 97.9317 20.6707 98.657 19.348C99.3823 18.0253 100.385 16.9907 101.665 16.244C102.945 15.476 104.406 15.092 106.049 15.092C107.393 15.092 108.609 15.348 109.697 15.86C110.806 16.3507 111.734 17.0547 112.481 17.972C113.228 18.8893 113.761 19.956 114.081 21.172C114.401 22.3667 114.454 23.6573 114.241 25.044H100.193V22.228H109.537C109.494 21.0333 109.142 20.0947 108.481 19.412C107.841 18.708 106.998 18.356 105.953 18.356C105.121 18.356 104.417 18.5693 103.841 18.996C103.265 19.4227 102.817 20.052 102.497 20.884C102.198 21.6947 102.049 22.6973 102.049 23.892C102.049 25.0653 102.198 26.0573 102.497 26.868C102.796 27.6787 103.244 28.2973 103.841 28.724C104.438 29.1507 105.164 29.364 106.017 29.364C106.998 29.364 107.809 29.1293 108.449 28.66C109.089 28.1907 109.537 27.54 109.793 26.708H114.209C113.718 28.628 112.769 30.1213 111.361 31.188C109.953 32.2547 108.204 32.788 106.113 32.788ZM123.524 32.852C121.967 32.852 120.591 32.4787 119.396 31.732C118.223 30.9853 117.295 29.9507 116.612 28.628C115.951 27.284 115.62 25.748 115.62 24.02C115.62 22.3133 115.962 20.7987 116.644 19.476C117.327 18.1533 118.266 17.1187 119.46 16.372C120.655 15.604 122.01 15.22 123.524 15.22C124.932 15.22 126.18 15.5187 127.268 16.116C128.378 16.692 129.284 17.524 129.988 18.612C130.714 19.6787 131.172 20.948 131.364 22.42H127.972C127.802 21.0547 127.322 19.988 126.532 19.22C125.743 18.452 124.751 18.068 123.556 18.068C122.618 18.068 121.807 18.324 121.124 18.836C120.442 19.3267 119.908 20.0093 119.524 20.884C119.14 21.7587 118.948 22.804 118.948 24.02C118.948 25.2147 119.14 26.26 119.524 27.156C119.908 28.052 120.442 28.7453 121.124 29.236C121.807 29.7267 122.618 29.972 123.556 29.972C124.772 29.972 125.764 29.588 126.532 28.82C127.322 28.052 127.812 26.9853 128.004 25.62H131.364C131.194 27.1133 130.756 28.404 130.052 29.492C129.348 30.5587 128.442 31.3907 127.332 31.988C126.223 32.564 124.954 32.852 123.524 32.852ZM144.25 32.5V29.876C143.716 30.8147 142.991 31.54 142.074 32.052C141.156 32.564 140.068 32.82 138.81 32.82C137.06 32.82 135.652 32.3613 134.586 31.444C133.519 30.5053 132.986 29.2573 132.986 27.7C132.986 26.036 133.636 24.7773 134.938 23.924C136.26 23.0707 138.18 22.644 140.698 22.644C141.188 22.644 141.668 22.6547 142.138 22.676C142.607 22.6973 143.183 22.7507 143.866 22.836V21.588C143.866 20.3933 143.556 19.4653 142.938 18.804C142.319 18.1213 141.444 17.78 140.314 17.78C139.14 17.78 138.202 18.1213 137.498 18.804C136.815 19.4653 136.452 20.3827 136.41 21.556H133.466C133.508 20.276 133.818 19.1667 134.394 18.228C134.991 17.268 135.791 16.532 136.794 16.02C137.818 15.4867 138.991 15.22 140.314 15.22C142.404 15.22 144.026 15.7853 145.178 16.916C146.351 18.0253 146.938 19.5933 146.938 21.62V32.5H144.25ZM136.058 27.604C136.058 28.4787 136.367 29.1827 136.986 29.716C137.604 30.2493 138.426 30.516 139.45 30.516C140.815 30.516 141.892 30.132 142.682 29.364C143.471 28.5747 143.866 27.5293 143.866 26.228V24.852C143.247 24.788 142.703 24.7453 142.234 24.724C141.764 24.6813 141.316 24.66 140.89 24.66C139.268 24.66 138.052 24.9053 137.242 25.396C136.452 25.8653 136.058 26.6013 136.058 27.604ZM164.059 27.444C164.059 29.108 163.44 30.42 162.203 31.38C160.965 32.34 159.216 32.82 156.955 32.82C154.736 32.82 152.976 32.2973 151.675 31.252C150.395 30.2067 149.669 28.7773 149.499 26.964H152.603C152.645 28.0307 153.061 28.8733 153.851 29.492C154.661 30.0893 155.717 30.388 157.019 30.388C158.149 30.388 159.056 30.1853 159.739 29.78C160.443 29.3747 160.795 28.7773 160.795 27.988C160.795 27.284 160.56 26.7507 160.091 26.388C159.643 26.0253 158.885 25.748 157.819 25.556L155.067 25.044C153.509 24.7453 152.304 24.2013 151.451 23.412C150.597 22.6013 150.171 21.556 150.171 20.276C150.171 19.2733 150.437 18.3987 150.971 17.652C151.525 16.884 152.293 16.2867 153.275 15.86C154.256 15.4333 155.397 15.22 156.699 15.22C158.064 15.22 159.259 15.4547 160.283 15.924C161.307 16.372 162.128 17.0227 162.747 17.876C163.365 18.708 163.717 19.7107 163.803 20.884H160.699C160.592 19.8813 160.187 19.092 159.483 18.516C158.779 17.94 157.861 17.652 156.731 17.652C155.707 17.652 154.875 17.8653 154.235 18.292C153.616 18.6973 153.307 19.2627 153.307 19.988C153.307 20.6707 153.531 21.1933 153.979 21.556C154.448 21.8973 155.195 22.1747 156.219 22.388L159.099 22.932C160.784 23.2307 162.032 23.7533 162.843 24.5C163.653 25.2467 164.059 26.228 164.059 27.444ZM176.297 29.364V32.212C175.806 32.4467 175.326 32.6067 174.857 32.692C174.409 32.7773 173.929 32.82 173.417 32.82C172.371 32.82 171.443 32.628 170.633 32.244C169.843 31.86 169.225 31.2627 168.777 30.452C168.329 29.6413 168.105 28.6173 168.105 27.38V18.292H164.361V15.54H168.105V10.516H171.337V15.54H176.457V18.292H171.337V26.644C171.337 27.8173 171.593 28.6387 172.105 29.108C172.638 29.5773 173.331 29.812 174.185 29.812C174.569 29.812 174.931 29.78 175.273 29.716C175.635 29.6307 175.977 29.5133 176.297 29.364ZM185.408 32.82C183.766 32.82 182.326 32.4573 181.088 31.732C179.872 30.9853 178.923 29.94 178.24 28.596C177.558 27.252 177.216 25.6947 177.216 23.924C177.216 22.2387 177.568 20.7453 178.272 19.444C178.976 18.1427 179.936 17.1187 181.152 16.372C182.368 15.604 183.755 15.22 185.312 15.22C186.592 15.22 187.734 15.4653 188.736 15.956C189.76 16.4253 190.624 17.0973 191.328 17.972C192.054 18.8253 192.576 19.8387 192.896 21.012C193.216 22.164 193.302 23.4333 193.152 24.82H179.104V22.676H189.728C189.664 21.0973 189.227 19.8707 188.416 18.996C187.627 18.1 186.571 17.652 185.248 17.652C184.288 17.652 183.446 17.908 182.72 18.42C182.016 18.9107 181.462 19.6253 181.056 20.564C180.672 21.4813 180.48 22.6013 180.48 23.924C180.48 25.2467 180.672 26.388 181.056 27.348C181.44 28.2867 181.995 29.012 182.72 29.524C183.446 30.036 184.32 30.292 185.344 30.292C186.56 30.292 187.563 29.9827 188.352 29.364C189.163 28.7453 189.696 27.8813 189.952 26.772H193.152C192.747 28.6493 191.851 30.132 190.464 31.22C189.099 32.2867 187.414 32.82 185.408 32.82ZM199.181 23.828V32.5H195.949V15.54H198.957V19.124C199.554 17.9507 200.439 17.0227 201.613 16.34C202.807 15.6573 204.098 15.316 205.485 15.316V18.676C204.269 18.612 203.181 18.7507 202.221 19.092C201.282 19.4333 200.535 19.9987 199.981 20.788C199.447 21.556 199.181 22.5693 199.181 23.828Z" fill="url(#paint1_linear_7126_34)"/>
<defs>
<linearGradient id="paint0_linear_7126_34" x1="4.03226" y1="33.8125" x2="40.2107" y2="32.7958" gradientUnits="userSpaceOnUse">
<stop stop-color="#0D3317"/>
<stop offset="1" stop-color="#289944"/>
</linearGradient>
<linearGradient id="paint1_linear_7126_34" x1="126" y1="20" x2="127.5" y2="33" gradientUnits="userSpaceOnUse">
<stop stop-color="white"/>
<stop offset="1" stop-color="#DADADA"/>
</linearGradient>
</defs>
</svg>
